# xmcd
#
# Track frame offsets:
#	183
#	19233
#	37903
#	52575
#	70855
#	83820
#	102430
#	115663
#	131178
#	147118
#	161358
#	176640
#	193123
#	208920
#	226033
#
# Disc length: 3226 seconds
# Revision: 6
# Processed by: cddbd v1.5.2PL0 Copyright (c) Steve Scherf et al.
# Submitted via: dBpowerAMP V12.0
#
DISCID=c40c980f
DTITLE=Juice Newton - Juice Newton's Greatest Hits (and more)
DYEAR=1987
DGENRE=Country
TTITLE0=Angel Of The Morning
TTITLE1=Heart Of The Night
TTITLE2=Love's Been A Little Bit Hard On Me
TTITLE3=Break It To Me Gently
TTITLE4=Low Down And Lonesome
TTITLE5=The Sweetest Thing (I've Ever Known)
TTITLE6=So Many Ways
TTITLE7=Queen Of Hearts
TTITLE8=Lay Back In The Arms Of Someone
TTITLE9=Hey Baby
TTITLE10=Shot Full Of Love
TTITLE11=I'm Gonna Be Strong
TTITLE12=It's A Heartache
TTITLE13=Dirty Looks
TTITLE14=Tell Her No
EXTD=
EXTT0=
EXTT1=
EXTT2=
EXTT3=
EXTT4=
EXTT5=
EXTT6=
EXTT7=
EXTT8=
EXTT9=
EXTT10=
EXTT11=
EXTT12=
EXTT13=
EXTT14=
PLAYORDER=
